<?xml version="1.0" encoding="UTF-8"?>
<svg id="Capa_2" data-name="Capa 2" xmlns="http://www.w3.org/2000/svg" viewBox="0 0 1038.21 1942.25">
  <defs>
    <style>
      .cls-1 {
        fill: #23546c;
      }
    </style>
  </defs>
  <g id="Capa_1-2" data-name="Capa 1">
    <g>
      <path class="cls-1" d="M188.17,686.23c4.07,6.57,9.17,14.29,13.66,22.34,1.89,3.39,2.9,7.42,3.6,11.28,1.03,5.7-3.35,9.99-9.72,10.28-9.67,.44-18.59-2.69-27.16-6.39-10.25-4.42-20.39-9.28-30.02-14.91-9.46-5.53-17.78-12.69-23.06-22.72-4.63-8.8-3.82-19.3,2.22-26.84,6.86-8.55,16.46-11.73,26.69-8.82,10.23,2.9,18.71,8.78,26.08,16.16,5.84,5.85,11.11,12.28,17.7,19.63Z"/>
      <path class="cls-1" d="M104.93,628.46c1.85,4.37,4.25,8.6,5.42,13.14,1.93,7.5-3.63,14.41-11.34,13.89-12.51-.85-22.96-6.12-30.05-16.79-3.05-4.59-2.76-9.75,.05-14.41,3.31-5.49,7.8-9.61,14.81-9.18,7.53,.46,12.75,5.13,17.6,10.3,.98,1.05,1.78,2.28,2.66,3.42l.86-.37Z"/>
      <path class="cls-1" d="M130.8,607.76c2.8,4.05,4.45,8.74,3.71,13.98-.74,5.28-5.48,8.15-10.36,6.06-6.06-2.59-10.18-7.14-11.6-13.73-.95-4.39,.71-8.41,3.84-10.03,4.54-2.35,9.1-1.79,12.58,1.58,.6,.58,1.09,1.27,1.83,2.14Z"/>
      <path class="cls-1" d="M86.54,668.81c6.05,7.84,4.29,13.17-2.58,15.18-6.64,1.94-14.62-.46-18.31-5.43-2.32-3.13-2.73-6.55-.82-9.82,1.76-3.03,4.71-5.03,8.32-4.93,6.02,.16,11.24,2.35,13.4,5.01Z"/>
      <path class="cls-1" d="M249.48,641.04c-10.21-13.61-18.6-25.23-22.71-39.21-2.52-8.57-3.6-17.31,.84-25.64,7.08-13.28,26.35-18.94,39.85-5.57,10.97,10.87,15.62,24.74,18.43,39.18,2.36,12.1,3.35,24.5,4.41,36.82,.34,3.95-.49,8.22-1.71,12.05-2.49,7.83-7.59,9.17-14.36,5.42-5.37-2.98-10.17-7.23-14.66-11.51-4.32-4.13-7.92-9.01-10.1-11.54Z"/>
      <path class="cls-1" d="M236.85,517.91c4.34,7.08,6.72,17.34,4.35,28.46-1.33,6.27-8.13,9.85-14.27,7.9-8.22-2.61-12.64-9.29-16.81-16.04-1.78-2.89-2.97-6.31-3.72-9.65-2.05-9.17,1.11-15.01,9.69-18.78,7.04-3.1,13.81-1.05,20.76,8.11Z"/>
      <path class="cls-1" d="M272.07,519.68c4.39,5.69,3.61,16.7-1.36,21.58-2.86,2.81-7.07,2.91-10.05,.24-4.72-4.24-7.39-13.76-4.46-19.22,1.42-2.66,4.52-5.08,7.4-6.11,3.24-1.15,6.57,.52,8.47,3.51Z"/>
      <path class="cls-1" d="M187.71,565.5c-6.25-8.37-3.64-17.09,4.18-18.08,5.1-.65,8.89,2.27,11.66,5.94,2.01,2.67,3.4,6.09,4.14,9.38,1.28,5.67-3.2,10-8.87,8.81-4.8-1.01-9-3.31-11.11-6.05Z"/>
      <path class="cls-1" d="M156.22,486.43c-9.29,7.22-19.64,9.06-30.93,6.03-10.53-2.82-14.64-14.15-8.23-22.9,9.11-12.43,21.62-18.78,36.85-19.51,9.78-.47,16.04,6.84,14.78,16.49-1.04,7.94-4.82,13.95-12.46,19.88Z"/>
      <path class="cls-1" d="M111.85,421.79c7.4-5.64,16.63-5.8,20.7,.12,6.15,8.94,6.93,19.59-.82,25.7-6.6,5.2-15.18,2.75-21.8-5.37-4.69-5.75-5.96-15.65,1.92-20.45Z"/>
      <path class="cls-1" d="M164.93,425.69c3.59,4.65,2.9,11.41-1.51,14.79-3.99,3.06-9.03,2.41-12.09-1.56-3.75-4.86-3-11.45,1.71-15.03,4.16-3.16,8.57-2.5,11.89,1.8Z"/>
      <path class="cls-1" d="M107.85,457.14c3.27,4.16,2.68,9.57-1.4,12.76-4.07,3.19-11.02,1.88-14.42-2.7-2.53-3.41-2.01-9.98,.96-12.3,4.15-3.25,11.4-2.15,14.86,2.25Z"/>
      <path class="cls-1" d="M63.47,557.9c-7.02,5.56-14.41,8.46-23.1,7.22-8.37-1.19-13.48-7.77-12.38-16.03,1.8-13.53,17.94-31.01,30.87-33.89,11.18-2.49,17.03,5.46,17.89,14.58,.97,10.32-5.09,22.87-13.28,28.11Z"/>
      <path class="cls-1" d="M12.16,498.61c7.12-5.46,14.2-3.95,20.58,4.39,6.05,7.9,5.64,16.64-1.15,21.72-7.99,5.98-17.94,1.92-24.49-5.57-5.08-5.82-2.71-14.58,5.06-20.53Z"/>
      <path class="cls-1" d="M1.92,550.75c-3.11-4.19-2.4-8.65,1.91-11.88,4.55-3.42,11.07-2.32,14.61,2.46,3.07,4.13,2.41,8.99-1.64,12.1-4.62,3.55-11.13,2.38-14.89-2.67Z"/>
      <path class="cls-1" d="M59.9,505.75c-4.01,3.11-9.35,2.33-12.73-1.87-3.6-4.46-2.82-11.24,1.71-14.84,3.06-2.43,9.27-1.35,12.02,2.09,3.47,4.35,2.98,11.52-1,14.61Z"/>
    </g>
    <g>
      <path class="cls-1" d="M940.32,1185.15c10.47-1.5,20.71-.54,28.82,6.62,8.48,7.48,12.36,19.04,20.5,26.89,6.23,6,14.67,9.55,20.12,16.26,8.39,10.33,7.21,26.52-1.1,36.92-8.31,10.4-22.36,15.19-35.64,14.31-8.88-.59-17.69-3.45-26.53-2.39-9.38,1.13-17.78,6.57-27.11,8.06-10.03,1.6-20.73-1.77-28.03-8.84-7.3-7.06-11.03-17.65-9.76-27.73,1.33-10.59,7.69-19.86,14.74-27.86,7.05-8.01,15.04-15.29,20.78-24.29,2.86-4.48,5.16-9.4,8.86-13.23,3.69-3.83,9.25-4.52,14.35-4.72Z"/>
      <path class="cls-1" d="M1031.23,1155.34c3.98,4.25,6.11,10,6.75,15.79,.63,5.79-.14,11.65-1.39,17.33-1.78,8.1-4.69,16.25-10.43,22.24-5.74,5.99-14.84,9.32-22.6,6.39-7.81-2.95-12.44-11.55-12.75-19.89-.32-8.34,2.93-16.42,6.94-23.74,3.1-5.64,6.78-11.13,11.91-15.02,5.13-3.89,11.2-8.54,21.58-3.11"/>
      <path class="cls-1" d="M955.59,1101.88c10.1-4.58,20.82,1.21,26.21,7.97,5.38,6.76,7.73,15.47,8.7,24.05,.74,6.51,.76,13.15-.63,19.55-1.39,6.4-4.24,12.57-8.74,17.33-2.97,3.14-6.81,5.7-11.12,6.18-6.85,.75-13.17-3.85-17.67-9.07-8.79-10.22-13.52-23.85-12.94-37.32,.25-5.77,1.46-11.56,4.12-16.69,2.66-5.13,6.83-9.56,12.07-11.99Z"/>
      <path class="cls-1" d="M844.41,1171.29c-3.2,4.87-4.33,10.89-3.97,16.7,.36,5.81,2.11,11.45,4.31,16.85,3.13,7.68,7.38,15.22,14.05,20.15,6.67,4.93,16.21,6.67,23.36,2.47,7.2-4.23,10.3-13.49,9.2-21.77-1.1-8.28-5.67-15.69-10.87-22.22-4.01-5.04-8.57-9.82-14.28-12.78-5.71-2.96-12.49-6.52-21.79,.59"/>
      <path class="cls-1" d="M909.9,1105.78c-10.73-2.81-20.32,4.72-24.48,12.3-4.16,7.57-5,16.55-4.5,25.18,.37,6.54,1.48,13.09,3.93,19.16,2.45,6.07,6.31,11.67,11.55,15.6,3.46,2.6,7.68,4.47,12,4.2,6.88-.42,12.33-6.02,15.88-11.94,6.93-11.56,9.28-25.8,6.42-38.97-1.22-5.64-3.4-11.15-6.88-15.75-3.49-4.6-8.35-8.27-13.93-9.77Z"/>
    </g>
    <g>
      <path class="cls-1" d="M127.82,1289.81c7.99,10.32,11,18.86,8.22,28.64-2.54,8.93-10.3,14.39-19.63,14.2q-11.86-.24-14.36,11.34c-2.97,13.77-17.24,20.38-30.45,13.78-13.59-6.79-19.48-18.72-20.39-33.23-.78-12.45,2.7-24.28,7.08-35.78,2.03-5.33,5.88-9.41,11.61-10.44,15.23-2.75,30.56-3.73,45.07,2.94,5.53,2.54,10.28,6.8,12.85,8.56Z"/>
      <path class="cls-1" d="M43.9,1263.86c6.6,8.31,6.24,18.93-.45,25.2-6.54,6.12-18.45,6.02-25.67-.23-7.1-6.14-9.69-14.67-6.72-22.1,4.66-11.64,20.08-14.4,30.27-5.42,1.06,.93,2.01,1.98,2.57,2.54Z"/>
      <path class="cls-1" d="M79.02,1232.3c3.37,4.77,5.52,9.79,4.84,15.6-.81,6.87-3.83,12.35-10.53,15.09-6.78,2.77-12.96,1.33-18.41-3.28-6-5.07-8.6-11.67-7.73-19.47,.8-7.13,5.86-13.01,12.44-14.73,8.03-2.1,14.19,1.19,19.39,6.78Z"/>
      <path class="cls-1" d="M12.34,1305.76c7.14-5.75,19.37-4.16,25.46,3.32,5.18,6.36,4.33,15.54-1.9,20.56-7.54,6.08-19.32,4.37-25.8-3.76-5.07-6.36-4.11-15.01,2.25-20.12Z"/>
      <path class="cls-1" d="M99.29,1264.13c-6.03-7.67-4.76-19.15,2.74-24.94,6.66-5.14,15.06-3.85,20.48,3.15,5.89,7.6,4.81,19.14-2.31,24.79-6.46,5.13-15.55,3.82-20.91-3Z"/>
    </g>
    <g>
      <path class="cls-1" d="M104.6,1821.41c7.26-4.19,15.08-6.51,23.16-3.63,8.45,3,14.72,10.37,23.03,13.74,6.35,2.58,13.61,2.7,19.61,6.03,9.23,5.13,13.13,17.39,10.09,27.5-3.05,10.11-11.98,17.78-22.01,21.05-6.71,2.19-14.04,2.68-20.23,6.07-6.57,3.6-11.15,10.09-17.58,13.93-6.91,4.14-15.78,4.81-23.24,1.77-7.46-3.04-13.33-9.73-15.37-17.53-2.15-8.19-.2-16.89,2.63-24.86,2.83-7.97,6.56-15.7,8.13-24.01,.78-4.14,1.03-8.44,2.62-12.35,1.59-3.91,5.47-6.06,9.17-7.71Z"/>
      <path class="cls-1" d="M162.72,1772.64c4.18,1.96,7.45,5.56,9.62,9.63,2.17,4.07,3.33,8.62,4.09,13.17,1.08,6.49,1.34,13.35-1.11,19.45-2.46,6.1-8.17,11.24-14.75,11.37-6.62,.13-12.56-4.83-15.26-10.88-2.7-6.05-2.69-12.95-1.89-19.52,.61-5.07,1.71-10.19,4.34-14.57,2.63-4.38,5.72-9.59,14.96-8.65"/>
      <path class="cls-1" d="M91.27,1755.62c6.08-6.35,15.69-5.25,21.64-1.87,5.96,3.39,10.25,9.1,13.5,15.13,2.47,4.57,4.44,9.46,5.31,14.58,.87,5.12,.59,10.5-1.32,15.34-1.26,3.19-3.33,6.21-6.36,7.83-4.82,2.58-10.83,1.05-15.68-1.47-9.49-4.93-16.99-13.57-20.54-23.65-1.52-4.32-2.34-8.94-1.9-13.5,.44-4.56,2.2-9.06,5.34-12.39Z"/>
      <path class="cls-1" d="M29.91,1839.51c-.92,4.53,.03,9.29,2,13.47,1.98,4.17,4.94,7.81,8.14,11.13,4.57,4.73,9.92,9.03,16.29,10.69,6.36,1.66,13.9,.13,17.92-5.07,4.05-5.24,3.6-12.97,.35-18.74-3.25-5.77-8.8-9.87-14.56-13.15-4.44-2.53-9.2-4.7-14.29-5.19-5.08-.49-11.11-1.11-15.86,6.87"/>
      <path class="cls-1" d="M58.78,1771.97c-8.72,1.1-13.56,9.47-14.39,16.27-.83,6.8,1.21,13.66,4.12,19.86,2.2,4.7,4.95,9.2,8.55,12.95,3.6,3.75,8.09,6.73,13.11,8.07,3.32,.89,6.97,1.02,10.08-.45,4.94-2.34,7.3-8.07,8.16-13.47,1.69-10.56-.78-21.73-6.77-30.58-2.57-3.79-5.79-7.2-9.72-9.56-3.93-2.36-8.59-3.62-13.13-3.09Z"/>
    </g>
    <g>
      <path class="cls-1" d="M982.14,653.37c-.24,16.62-4.02,27.51-14.55,35.05-9.62,6.88-21.67,6.15-30.82-1.45q-11.62-9.65-23.3-.11c-13.9,11.35-33.34,6.6-41.26-10.45-8.14-17.54-4.54-34.11,6.08-49.28,9.11-13.01,21.96-22.03,35.45-30.01,6.25-3.7,13.33-4.7,19.85-1.18,17.34,9.35,33.39,20.55,42.55,38.71,3.49,6.92,4.83,14.93,6,18.72Z"/>
      <path class="cls-1" d="M919.18,560.91c-.02,13.52-8.81,23.81-20.46,24.73-11.37,.91-23.15-8.66-25.37-20.61-2.19-11.76,2-22.3,10.86-27.33,13.88-7.88,31.43,1.6,34.44,18.64,.31,1.77,.42,3.57,.54,4.57Z"/>
      <path class="cls-1" d="M979.21,557.36c-.43,7.43-2.27,14.13-7.57,19.38-6.26,6.2-13.61,9.25-22.47,6.66-8.95-2.62-13.96-8.97-15.73-17.88-1.94-9.81,.7-18.45,7.76-25.52,6.46-6.46,16.17-8.3,24.08-4.79,9.66,4.28,13.18,12.45,13.92,22.15Z"/>
      <path class="cls-1" d="M854.49,577.57c11.68-.06,22.59,11.24,22.71,23.52,.11,10.44-8.02,18.91-18.22,18.97-12.34,.07-22.7-10.99-22.7-24.23,0-10.36,7.82-18.2,18.21-18.26Z"/>
      <path class="cls-1" d="M974.13,605.15c.09-12.42,10.46-22.85,22.53-22.66,10.71,.17,18.05,8.12,17.89,19.39-.17,12.24-10.41,22.88-21.98,22.85-10.5-.03-18.52-8.54-18.44-19.59Z"/>
    </g>
    <g>
      <path class="cls-1" d="M733.11,1868.57c-3.89,6.11-8.32,13.55-13.28,20.62-2.09,2.97-5.07,5.47-8.05,7.63-4.39,3.19-9.79,1.24-12.62-4.01-4.3-7.97-5.29-16.77-5.66-25.51-.44-10.45-.47-20.98,.36-31.39,.81-10.23,3.46-20.16,9.78-28.7,5.54-7.49,14.72-11.08,23.54-9.05,10,2.3,16.59,9.11,18.31,18.92,1.71,9.81,.21,19.35-3.02,28.57-2.56,7.31-5.83,14.37-9.35,22.92Z"/>
      <path class="cls-1" d="M747.95,1774.85c-2.93,3.34-5.52,7.09-8.88,9.92-5.54,4.69-13.63,2.81-16.33-3.91-4.38-10.9-4.18-21.86,1.93-32.18,2.63-4.45,7.1-6.3,12.18-5.82,5.98,.56,11.28,2.67,13.77,8.75,2.68,6.54,.86,12.84-1.52,19.03-.48,1.26-1.2,2.43-1.8,3.64l.66,.57Z"/>
      <path class="cls-1" d="M775.95,1788.25c-2.28,4.01-5.56,7.31-10.28,8.82-4.76,1.52-9.11-1.31-9.33-6.28-.28-6.16,1.88-11.49,6.86-15.37,3.32-2.59,7.38-2.82,10.02-.84,3.83,2.87,5.21,6.95,3.79,11.25-.25,.74-.63,1.44-1.06,2.41Z"/>
      <path class="cls-1" d="M706.43,1775.76c-4.15,8.29-9.36,8.98-13.85,4-4.34-4.81-5.57-12.52-2.87-17.65,1.7-3.23,4.41-4.96,7.95-4.69,3.28,.25,6.16,1.92,7.55,5.01,2.32,5.14,2.59,10.44,1.23,13.34Z"/>
      <path class="cls-1" d="M796.18,1901.9c7.32-14.16,13.71-25.96,23.83-35.11,6.2-5.61,13.13-10.08,21.97-9.72,14.08,.56,26.7,14.52,20.91,31.35-4.7,13.67-14.51,23.24-25.55,31.49-9.25,6.91-19.3,12.79-29.26,18.7-3.19,1.9-7.13,2.93-10.86,3.46-7.62,1.09-10.82-2.67-10.41-9.91,.32-5.74,1.96-11.52,3.74-17.04,1.72-5.33,4.38-10.35,5.63-13.22Z"/>
      <path class="cls-1" d="M894.9,1841.13c-4.2,6.54-11.89,12.73-22.23,15.25-5.83,1.43-11.62-2.84-12.47-8.82-1.14-7.99,2.69-14.45,6.69-20.71,1.72-2.68,4.12-5.08,6.63-7.07,6.9-5.46,13.11-5.17,19.78,.53,5.48,4.68,6.51,11.22,1.61,20.81Z"/>
      <path class="cls-1" d="M907.73,1871.55c-3.01,6.02-12.61,9.84-18.76,7.64-3.54-1.27-5.33-4.78-4.29-8.38,1.65-5.7,8.6-11.83,14.4-11.59,2.82,.12,6.13,1.75,8.16,3.76,2.29,2.26,2.24,5.75,.48,8.57Z"/>
      <path class="cls-1" d="M834.76,1819.05c4.52-8.68,12.93-10.03,16.96-3.83,2.62,4.04,1.7,8.42-.27,12.25-1.43,2.79-3.75,5.34-6.23,7.31-4.26,3.39-9.74,1.37-11.04-3.9-1.1-4.46-.87-8.94,.58-11.83Z"/>
      <path class="cls-1" d="M888.63,1760.3c-9.87-4.9-15.63-12.88-17.67-23.64-1.9-10.03,5.97-18.11,15.96-16.26,14.2,2.63,24.64,10.59,31.45,23.14,4.37,8.06,.76,16.31-7.9,19.18-7.12,2.36-13.72,1.62-21.84-2.42Z"/>
      <path class="cls-1" d="M925.09,1696.57c7.77,3.95,11.66,11.66,8.32,17.51-5.03,8.83-13.71,13.82-22.01,9.76-7.07-3.45-8.5-11.68-4.34-20.57,2.94-6.3,10.78-11.39,18.03-6.7Z"/>
      <path class="cls-1" d="M943.41,1742.93c-2.46,4.92-8.44,7.09-13.09,4.75-4.2-2.12-5.71-6.63-3.61-10.83,2.57-5.14,8.44-7.19,13.37-4.67,4.36,2.22,5.6,6.21,3.32,10.76Z"/>
      <path class="cls-1" d="M893.65,1707.58c-2.17,4.45-6.98,6.15-11.33,4.01-4.34-2.14-6.08-8.53-3.59-13.26,1.85-3.52,7.6-5.76,10.77-4.19,4.43,2.18,6.46,8.74,4.15,13.45Z"/>
      <path class="cls-1" d="M790.6,1711.16c-7.55-3.66-13-8.71-15.49-16.54-2.4-7.54,1.07-14.53,8.48-16.97,12.14-3.99,33.46,2.51,41.15,12.24,6.65,8.42,2.33,16.59-5.02,21.02-8.31,5.02-21.37,5.01-29.11,.24Z"/>
      <path class="cls-1" d="M819.72,1643.75c7.5,3.79,9.11,10.37,4.68,19.15-4.2,8.32-11.74,11.53-18.79,7.87-8.29-4.3-8.92-14.35-5.27-22.93,2.84-6.66,11.19-8.22,19.38-4.09Z"/>
      <path class="cls-1" d="M771.57,1656.34c2.27-4.33,6.32-5.54,10.8-3.22,4.74,2.45,6.46,8.39,3.87,13.33-2.24,4.27-6.61,5.69-10.87,3.54-4.87-2.46-6.54-8.42-3.8-13.64Z"/>
      <path class="cls-1" d="M833.13,1686.93c-4.26-2.11-5.77-6.94-3.61-11.5,2.3-4.85,8.33-6.95,13.21-4.6,3.3,1.59,4.91,7.27,3.13,10.99-2.25,4.7-8.5,7.21-12.73,5.11Z"/>
    </g>
    <g>
      <path class="cls-1" d="M197.64,99.92c3.63,14.62,2.83,25.04-4.67,34.08-6.85,8.25-17.58,10.39-27.35,5.84q-12.41-5.78-20.45,5.28c-9.56,13.16-27.7,13.48-38.58,.36-11.18-13.5-11.85-28.85-6.04-44.6,4.98-13.51,14.17-24.38,24.15-34.48,4.62-4.68,10.6-7.19,17.13-5.61,17.36,4.2,34.01,10.31,46.23,24.11,4.66,5.26,7.68,11.98,9.58,15.02Z"/>
      <path class="cls-1" d="M121.11,33.4c3.1,11.85-2.23,22.9-12.23,26.4-9.76,3.42-22.28-2.25-27-12.21-4.63-9.8-3.4-20.01,3.21-26.46,10.35-10.11,27.92-5.85,34.49,8.39,.68,1.48,1.2,3.03,1.53,3.88Z"/>
      <path class="cls-1" d="M172.91,16.44c1.34,6.61,1.27,12.91-2.16,18.73-4.05,6.88-9.8,11.25-18.16,11.02-8.45-.23-14.31-4.64-17.91-12.04-3.97-8.15-3.64-16.34,.91-24.16,4.17-7.16,12.26-11.01,20-9.76,9.45,1.53,14.43,7.87,17.31,16.2Z"/>
      <path class="cls-1" d="M68.25,62.93c10.23-2.75,22.39,4.64,25.33,15.37,2.5,9.13-2.67,18.42-11.6,20.83-10.8,2.91-22.44-4.39-25.49-16-2.39-9.08,2.66-17.76,11.75-20.2Z"/>
      <path class="cls-1" d="M179.48,59.5c-2.79-10.9,3.9-22.44,14.52-25.06,9.43-2.32,17.7,2.95,20.16,12.87,2.67,10.77-3.84,22.46-13.99,25.1-9.21,2.4-18.21-3.21-20.69-12.91Z"/>
    </g>
    <g>
      <path class="cls-1" d="M652.12,339.23c8.24,10.64,11.34,19.44,8.48,29.53-2.62,9.21-10.62,14.83-20.24,14.64q-12.23-.25-14.81,11.69c-3.07,14.2-17.77,21.01-31.4,14.21-14.01-7-20.09-19.3-21.02-34.27-.8-12.84,2.78-25.03,7.3-36.89,2.09-5.49,6.07-9.7,11.97-10.77,15.7-2.83,31.51-3.84,46.48,3.03,5.71,2.62,10.6,7.02,13.25,8.82Z"/>
      <path class="cls-1" d="M565.59,312.47c6.81,8.57,6.44,19.52-.47,25.99-6.74,6.31-19.02,6.2-26.47-.24-7.32-6.34-9.99-15.13-6.92-22.78,4.81-12,20.7-14.85,31.21-5.58,1.09,.96,2.07,2.05,2.65,2.62Z"/>
      <path class="cls-1" d="M601.8,279.93c3.48,4.92,5.7,10.09,4.99,16.09-.83,7.08-3.95,12.73-10.86,15.56-6.99,2.86-13.37,1.37-18.98-3.38-6.18-5.23-8.87-12.04-7.97-20.07,.83-7.35,6.05-13.42,12.83-15.19,8.28-2.16,14.63,1.23,19.99,7Z"/>
      <path class="cls-1" d="M533.04,355.67c7.37-5.93,19.97-4.29,26.25,3.42,5.34,6.56,4.46,16.02-1.96,21.2-7.77,6.27-19.92,4.5-26.6-3.88-5.23-6.56-4.24-15.47,2.32-20.75Z"/>
      <path class="cls-1" d="M622.7,312.75c-6.21-7.91-4.91-19.75,2.83-25.72,6.87-5.3,15.53-3.97,21.11,3.25,6.07,7.84,4.96,19.74-2.38,25.56-6.66,5.29-16.04,3.94-21.56-3.09Z"/>
    </g>
    <g>
      <path class="cls-1" d="M860.99,110.14c8.28,2.62,15.52,6.99,18.98,15.18,3.61,8.56,2.36,18.51,5.59,27.22,2.47,6.66,7.45,12.3,9.1,19.21,2.53,10.64-4.12,22.21-13.98,26.94-9.86,4.73-21.97,3.27-31.49-2.12-6.37-3.61-11.86-8.87-18.79-11.23-7.35-2.51-15.51-1.47-22.95-3.7-8-2.39-14.72-8.71-17.6-16.54-2.89-7.83-1.87-17,2.66-24.01,4.76-7.36,12.78-11.96,20.85-15.37,8.08-3.41,16.59-5.96,24.05-10.57,3.72-2.3,7.18-5.12,11.27-6.63,4.1-1.52,8.46-.05,12.31,1.62Z"/>
      <path class="cls-1" d="M938.92,120.49c1.43,4.57,.96,9.58-.64,14.09-1.6,4.51-4.26,8.57-7.21,12.34-4.21,5.36-9.27,10.36-15.65,12.75-6.38,2.39-14.31,1.61-19.01-3.33-4.73-4.97-5.09-12.99-2.35-19.28,2.74-6.29,8.03-11.11,13.61-15.1,4.3-3.07,8.99-5.82,14.17-6.87,5.18-1.05,11.34-2.33,17.08,5.39"/>
      <path class="cls-1" d="M901.99,53.94c9.11,.21,14.98,8.32,16.56,15.25,1.57,6.92,.21,14.21-2.13,20.91-1.77,5.08-4.13,10.01-7.44,14.25-3.31,4.24-7.62,7.79-12.65,9.71-3.32,1.27-7.08,1.79-10.43,.61-5.34-1.89-8.38-7.55-9.85-13.02-2.86-10.7-1.5-22.48,3.73-32.24,2.24-4.18,5.2-8.04,9-10.89,3.8-2.85,8.47-4.65,13.21-4.58Z"/>
      <path class="cls-1" d="M794.92,65.67c-4.1,2.46-7.09,6.52-8.9,10.95-1.81,4.43-2.52,9.23-2.82,14.01-.42,6.8,.03,13.9,3.21,19.93,3.18,6.03,9.62,10.72,16.41,10.16,6.84-.56,12.44-6.32,14.57-12.83,2.14-6.52,1.4-13.64-.12-20.33-1.17-5.16-2.84-10.32-6.02-14.56-3.17-4.23-6.92-9.28-16.34-7.33"/>
      <path class="cls-1" d="M866.77,40.53c-6.94-5.9-16.73-3.75-22.51,.37-5.78,4.12-9.6,10.47-12.31,17.03-2.06,4.98-3.57,10.22-3.93,15.59-.35,5.37,.51,10.89,2.99,15.67,1.64,3.16,4.1,6.05,7.39,7.39,5.24,2.14,11.28-.06,16.01-3.18,9.26-6.09,16.07-15.79,18.66-26.56,1.11-4.61,1.46-9.46,.52-14.12-.94-4.65-3.23-9.1-6.82-12.2Z"/>
    </g>
    <g>
      <path class="cls-1" d="M500.43,1488.05c9.05-1.3,17.91-.46,24.93,5.72,7.33,6.47,10.69,16.47,17.73,23.26,5.38,5.19,12.69,8.26,17.4,14.06,7.26,8.93,6.24,22.94-.95,31.93-7.19,8.99-19.34,13.14-30.83,12.37-7.68-.51-15.3-2.99-22.94-2.07-8.11,.98-15.38,5.69-23.45,6.97-8.68,1.38-17.93-1.53-24.25-7.64-6.31-6.11-9.54-15.26-8.44-23.98,1.15-9.16,6.65-17.18,12.75-24.1,6.1-6.92,13.01-13.23,17.97-21.01,2.47-3.88,4.47-8.13,7.66-11.44s8-3.91,12.41-4.08Z"/>
      <path class="cls-1" d="M579.06,1462.27c3.44,3.68,5.29,8.65,5.84,13.65,.55,5.01-.12,10.07-1.21,14.99-1.54,7.01-4.06,14.06-9.02,19.24-4.96,5.18-12.84,8.06-19.55,5.53-6.76-2.55-10.76-9.99-11.03-17.21-.28-7.22,2.53-14.2,6.01-20.53,2.68-4.88,5.86-9.63,10.3-12.99,4.44-3.36,9.69-7.39,18.66-2.69"/>
      <path class="cls-1" d="M513.64,1416.03c8.73-3.96,18.01,1.05,22.67,6.89,4.65,5.85,6.68,13.38,7.53,20.8,.64,5.63,.66,11.38-.54,16.91-1.2,5.54-3.67,10.87-7.56,14.99-2.57,2.72-5.89,4.93-9.62,5.34-5.93,.65-11.39-3.33-15.28-7.85-7.61-8.84-11.69-20.63-11.19-32.28,.22-4.99,1.26-10,3.56-14.44,2.3-4.44,5.91-8.27,10.44-10.37Z"/>
      <path class="cls-1" d="M417.48,1476.06c-2.77,4.21-3.75,9.42-3.44,14.45,.31,5.03,1.83,9.91,3.73,14.57,2.71,6.64,6.38,13.17,12.15,17.43,5.77,4.26,14.02,5.77,20.2,2.14,6.22-3.66,8.91-11.67,7.96-18.83-.95-7.16-4.9-13.57-9.4-19.22-3.47-4.36-7.41-8.49-12.35-11.05-4.94-2.56-10.8-5.64-18.85,.51"/>
      <path class="cls-1" d="M474.12,1419.41c-9.28-2.43-17.57,4.09-21.17,10.64-3.6,6.55-4.32,14.32-3.89,21.78,.32,5.66,1.28,11.32,3.4,16.58,2.12,5.25,5.46,10.09,9.99,13.49,3,2.24,6.65,3.86,10.38,3.63,5.95-.36,10.66-5.21,13.73-10.32,6-10,8.03-22.31,5.56-33.71-1.06-4.88-2.94-9.64-5.95-13.62-3.02-3.98-7.22-7.15-12.04-8.45Z"/>
    </g>
  </g>
</svg>